<svg width="1196" height="307" viewBox="0 0 1196 307" fill="none" xmlns="http://www.w3.org/2000/svg">
<rect width="1196" height="307" rx="32" fill="#CAF595"/>
<path d="M263 -17L237.321 8.67885C232.45 13.5497 228.028 18.8491 224.107 24.5127V24.5127C216.104 36.0726 210.292 49.004 206.96 62.6634L204.894 71.1334C202.978 78.9919 199.793 86.4854 195.465 93.319V93.319C187.349 106.133 175.512 116.162 161.538 122.062L155.674 124.538C144.01 129.463 131.477 132 118.815 132H110.109C80.1854 132 51.0755 122.257 27.1809 104.244L-1 83L-65 34" stroke="#D5FDA3" stroke-width="14"/>
<path d="M513 -73L544 2V2C548.561 15.6833 548.903 30.4218 544.98 44.3016L542.207 54.1142C539.475 63.7791 539.938 74.0676 543.524 83.4487V83.4487C548.28 95.8851 558.124 105.696 570.577 110.408L577.29 112.948C584.371 115.627 591.88 117 599.451 117H602.007C613.2 117 624.256 114.547 634.399 109.814L649 103V103C667.332 97.1075 686.907 96.2291 705.694 100.456L707.127 100.779C713.696 102.257 720.12 104.317 726.322 106.936L735.2 110.684C752.851 118.137 768.651 129.374 781.484 143.602L783.055 145.343C799.321 163.378 809.891 185.819 813.436 209.846V209.846C815.789 225.793 814.988 242.048 811.078 257.686L808 270L797 307" stroke="#D5FDA3" stroke-width="14"/>
<path d="M1048 335L1007.57 304.302C999.02 297.812 994 287.696 994 276.963V276.963C994 263.574 1001.78 251.407 1013.94 245.796L1021.57 242.274C1029.06 238.818 1037.32 237.373 1045.54 238.081L1083.31 241.337C1088.43 241.778 1093.51 242.615 1098.49 243.838V243.838C1127.32 250.908 1157.79 244.766 1181.63 227.082L1206 209" stroke="#D5FDA3" stroke-width="14"/>
</svg>
