<svg width="237" height="73" viewBox="0 0 237 73" fill="none" xmlns="http://www.w3.org/2000/svg">
<path d="M102 12.9242H154L191.827 16.8841C195.925 17.313 199.948 18.2781 203.795 19.7545L225.236 27.9845C230.515 30.0109 234 35.081 234 40.7359V40.7359C234 44.9812 232.026 48.985 228.659 51.5701L224.729 54.5869C222.919 55.9762 220.918 57.097 218.788 57.9146L209.182 61.6018C201.757 64.4519 194.002 66.3543 186.101 67.2641L158 70.5H116H86.7742C75.6166 70.5 64.4841 69.4414 53.5264 67.3384L34.3603 63.66C30.1429 62.8506 26.0668 61.4275 22.2621 59.4361L13.081 54.6305C8.54995 52.2589 5.15657 48.1724 3.65788 43.2828V43.2828C1.43481 36.0297 3.70555 28.1482 9.44687 23.1898L11.3699 21.529C14.404 18.9086 18.0696 17.1255 22.0041 16.3559L54.5 10L93 3" stroke="#CAF595" stroke-width="5"/>
</svg>
