<svg width="211" height="67" viewBox="0 0 211 67" fill="none" xmlns="http://www.w3.org/2000/svg">
<path d="M90.6667 11.9686H136.889L170.406 15.5357C174.119 15.9309 177.762 16.8188 181.241 18.1762L200.083 25.5292C204.857 27.3922 208 31.9923 208 37.1168V37.1168C208 40.9479 206.235 44.5653 203.214 46.9225L199.794 49.5918C198.162 50.8655 196.354 51.8947 194.425 52.6473L185.972 55.9461C179.351 58.5297 172.427 60.2558 165.368 61.0821L140.444 64H103.111H77.1719C67.2286 64 57.3085 63.0412 47.5493 61.137L30.6269 57.8352C26.8226 57.0929 23.1496 55.7901 19.7279 53.9692L11.7429 49.7201C7.64049 47.537 4.57897 43.8071 3.23762 39.3578V39.3578C1.26553 32.8164 3.29462 25.7258 8.42869 21.218L10.0356 19.8071C12.7782 17.399 16.107 15.7563 19.6866 15.0445L48.4444 9.32593L82.6667 3" stroke="#CAF595" stroke-width="5"/>
</svg>
