<svg width="85" height="84" viewBox="0 0 85 84" fill="none" xmlns="http://www.w3.org/2000/svg">
<path d="M26 84V84C26 75.122 23.933 66.3659 19.9626 58.4252L16.5 51.5L9.01486 39.0248C8.00828 37.3471 7.19769 35.5595 6.599 33.6969L5.95413 31.6906C4.07923 25.8576 4.84837 19.4964 8.0595 14.2783L8.60337 13.3945C10.1735 10.843 12.3866 8.74892 15.0209 7.32201L15.4291 7.10089C20.1636 4.5364 25.862 4.48823 30.6391 6.97234V6.97234C33.7922 8.61195 36.3196 11.2417 37.8329 14.4573L38.6984 16.2966C39.2318 17.4302 39.6686 18.6068 40.0039 19.8139L41.8854 26.5876C41.9615 26.8613 42 27.144 42 27.428V27.428C42 29.6316 44.2105 31.1498 46.2672 30.3588L54.1455 27.3286C54.7137 27.1101 55.258 26.8341 55.7701 26.5049L62 22.5L63.594 21.3964C66.5644 19.34 70.4803 19.2731 73.5193 21.2267V21.2267C74.8176 22.0613 75.8778 23.2179 76.5967 24.5837L78.2372 27.7007C79.7234 30.5244 80.5 33.6674 80.5 36.8584V36.8584C80.5 39.9108 79.7893 42.9214 78.4242 45.6516L78.0635 46.373C76.3801 49.7398 73.8986 52.6438 70.8355 54.8318L65 59V59C58.3451 62.6602 51.3942 65.7542 44.2207 68.2493L43.5 68.5L39.5 70.5" stroke="#F6F8FA" stroke-width="9"/>
</svg>
